<?xml version="1.0" encoding="UTF-8"?>
<svg id="Layer_1" data-name="Layer 1" xmlns="http://www.w3.org/2000/svg" viewBox="0 0 473.94 533.33">
  <defs>
    <style>
      .cls-1 {
        fill: #659ad2;
      }

      .cls-2 {
        fill: #fff;
      }

      .cls-3 {
        fill: #004482;
      }

      .cls-4 {
        fill: #00599c;
      }
    </style>
  </defs>
  <path class="cls-4" d="M467.91,400c3.72-6.44,6.03-13.7,6.03-20.22V153.55c0-6.52-2.31-13.77-6.03-20.22l-230.94,133.33,230.94,133.33Z"/>
  <path class="cls-3" d="M257.49,528.45l195.93-113.12c5.64-3.26,10.77-8.89,14.49-15.33l-230.94-133.33L6.03,400c3.72,6.44,8.85,12.07,14.49,15.33l195.93,113.12c11.29,6.52,29.76,6.52,41.04,0Z"/>
  <path class="cls-1" d="M467.91,133.33c-3.72-6.44-8.85-12.07-14.49-15.33L257.49,4.89c-11.29-6.52-29.76-6.52-41.04,0L20.52,118C9.23,124.52,0,140.52,0,153.55v226.23c0,6.52,2.31,13.78,6.03,20.22l230.94-133.33,230.94-133.33Z"/>
  <path class="cls-2" d="M236.97,424.65c-87.11,0-157.98-70.87-157.98-157.98S149.86,108.69,236.97,108.69c56.21,0,108.63,30.25,136.81,78.94l-68.37,39.56c-14.1-24.37-40.33-39.51-68.44-39.51-43.56,0-78.99,35.43-78.99,78.99s35.43,78.99,78.99,78.99c28.11,0,54.34-15.14,68.44-39.52l68.37,39.56c-28.18,48.7-80.6,78.95-136.81,78.95h0Z"/>
  <path class="cls-2" d="M377.39,240.34h-17.55v17.55h-17.55v17.55h17.55v17.55h17.55v-17.55h17.55v-17.55h-17.55v-17.55Zm65.82,0h-17.55v17.55h-17.55v17.55h17.55v17.55h17.55v-17.55h17.55v-17.55h-17.55v-17.55Z"/>
</svg>